# Blender v2.93.0 OBJ File: 'Shuttle.blend'
# www.blender.org
mtllib shuttle.mtl
o Cube
v 0.702309 0.711407 -1.000000
v 0.702309 1.000000 -0.711407
v 2.000000 0.182730 -0.711407
v 1.422813 -1.000000 -0.711407
v 1.422813 -0.711407 -1.000000
v 2.000000 -0.513089 -0.711407
v 2.000000 0.182730 0.711407
v 0.702309 1.000000 0.711407
v 0.702309 0.711407 1.000000
v 2.000000 -0.513089 0.711407
v 1.422813 -0.711407 1.000000
v 1.422813 -1.000000 0.711407
v -1.422813 0.711407 -1.000000
v -2.000000 0.711407 -0.711407
v -1.422813 1.000000 -0.711407
v -2.000000 -0.711407 -0.711407
v -1.422813 -0.711407 -1.000000
v -1.422813 -1.000000 -0.711407
v -2.000000 0.711407 0.711407
v -1.422813 0.711407 1.000000
v -1.422813 1.000000 0.711407
v -1.422813 -1.000000 0.711407
v -1.422813 -0.711407 1.000000
v -2.000000 -0.711407 0.711407
vt 0.161074 0.536074
vt 0.338926 0.536074
vt 0.338926 0.713926
vt 0.161074 0.713926
vt 0.411074 0.036074
vt 0.588926 0.036074
vt 0.588926 0.213926
vt 0.411074 0.213926
vt 0.411074 0.786074
vt 0.588926 0.786074
vt 0.588926 0.963926
vt 0.411074 0.963926
vt 0.661074 0.536074
vt 0.838926 0.536074
vt 0.838926 0.713926
vt 0.661074 0.713926
vt 0.411074 0.536074
vt 0.588926 0.536074
vt 0.588926 0.713926
vt 0.411074 0.713926
vt 0.588926 0.463926
vt 0.625000 0.463926
vt 0.588926 0.500000
vt 0.338926 0.500000
vt 0.375000 0.536074
vt 0.625000 0.713926
vt 0.625000 0.713926
vt 0.661074 0.750000
vt 0.411074 0.750000
vt 0.375000 0.786074
vt 0.375000 0.786074
vt 0.588926 0.286074
vt 0.588926 0.250000
vt 0.625000 0.286074
vt 0.411074 0.250000
vt 0.375000 0.286074
vt 0.375000 0.286074
vt 0.588926 1.000000
vt 0.588926 1.000000
vt 0.625000 0.963926
vt 0.161074 0.750000
vt 0.125000 0.713926
vt 0.125000 0.536074
vt 0.161074 0.500000
vt 0.411074 0.463926
vt 0.411074 1.000000
vt 0.411074 0.286074
vt 0.625000 0.786074
vt 0.338926 0.750000
vt 0.875000 0.536074
vt 0.875000 0.713926
vn 0.0000 -1.0000 0.0000
vn -1.0000 0.0000 0.0000
vn 0.0000 0.0000 1.0000
vn 0.0000 1.0000 0.0000
vn 1.0000 0.0000 0.0000
vn 0.4068 0.6460 -0.6460
vn 0.5123 -0.6073 -0.6073
vn 0.4068 0.6460 0.6460
vn 0.5123 -0.6073 0.6073
vn -0.3333 0.6667 -0.6667
vn -0.3333 -0.6667 -0.6667
vn -0.3333 0.6667 0.6667
vn -0.3333 -0.6667 0.6667
vn -0.4472 -0.8944 0.0000
vn 0.0000 -0.7071 -0.7071
vn 0.3095 0.1052 -0.9451
vn -0.4472 0.0000 0.8944
vn 0.3095 0.1052 0.9451
vn -0.4472 0.0000 -0.8944
vn 0.0000 0.7071 0.7071
vn 0.5329 0.8462 0.0000
vn 0.0000 -0.7071 0.7071
vn -0.4472 0.8944 0.0000
vn 0.0000 0.7071 -0.7071
vn 0.6448 -0.7644 0.0000
vn 0.0000 0.0000 -1.0000
usemtl Material
s off
f 18/1/1 4/2/1 12/3/1 22/4/1
f 24/5/2 19/6/2 14/7/2 16/8/2
f 11/9/3 9/10/3 20/11/3 23/12/3
f 2/13/4 15/14/4 21/15/4 8/16/4
f 6/17/5 3/18/5 7/19/5 10/20/5
f 1/21/6 2/22/6 3/23/6
f 4/2/7 5/24/7 6/25/7
f 7/26/8 8/27/8 9/28/8
f 10/29/9 11/30/9 12/31/9
f 13/32/10 14/33/10 15/34/10
f 16/35/11 17/36/11 18/37/11
f 19/38/12 20/39/12 21/40/12
f 22/4/13 23/41/13 24/42/13
f 18/1/14 22/4/14 24/42/14 16/43/14
f 4/2/15 18/1/15 17/44/15 5/24/15
f 3/18/16 6/17/16 5/45/16 1/21/16
f 23/12/17 20/11/17 19/38/17 24/46/17
f 9/10/18 11/9/18 10/20/18 7/19/18
f 13/32/19 17/47/19 16/8/19 14/7/19
f 8/48/20 21/40/20 20/11/20 9/10/20
f 2/13/21 8/16/21 7/19/21 3/18/21
f 22/4/22 12/3/22 11/49/22 23/41/22
f 21/15/23 15/14/23 14/50/23 19/51/23
f 15/34/24 2/22/24 1/21/24 13/32/24
f 12/3/25 4/2/25 6/17/25 10/20/25
f 17/47/26 13/32/26 1/21/26 5/45/26
